<svg width="138" height="138" viewBox="0 0 138 138" fill="none" xmlns="http://www.w3.org/2000/svg">
<mask id="path-1-inside-1_25_31" fill="white">
<path d="M86.2598 0C92.6825 0.000131759 97.8896 5.20709 97.8896 11.6299V40.1104H126.37C132.793 40.1104 138 45.3174 138 51.7402V86.2598C138 92.6826 132.793 97.8896 126.37 97.8896H97.8896V126.37C97.8896 132.793 92.6825 138 86.2598 138H51.7402C45.3174 138 40.1104 132.793 40.1104 126.37V97.8896H11.6299C5.20705 97.8896 6.14543e-05 92.6826 0 86.2598V51.7402C8.34254e-05 45.3174 5.20706 40.1104 11.6299 40.1104H40.1104V11.6299C40.1104 5.20702 45.3174 1.45139e-05 51.7402 0H86.2598Z"/>
</mask>
<path d="M86.2598 0C92.6825 0.000131759 97.8896 5.20709 97.8896 11.6299V40.1104H126.37C132.793 40.1104 138 45.3174 138 51.7402V86.2598C138 92.6826 132.793 97.8896 126.37 97.8896H97.8896V126.37C97.8896 132.793 92.6825 138 86.2598 138H51.7402C45.3174 138 40.1104 132.793 40.1104 126.37V97.8896H11.6299C5.20705 97.8896 6.14543e-05 92.6826 0 86.2598V51.7402C8.34254e-05 45.3174 5.20706 40.1104 11.6299 40.1104H40.1104V11.6299C40.1104 5.20702 45.3174 1.45139e-05 51.7402 0H86.2598Z" fill="#EA882D"/>
<path d="M86.2598 0L86.2598 -4.2642H86.2598V0ZM97.8896 40.1104H93.6254V44.3746H97.8896V40.1104ZM126.37 40.1104V35.8461V40.1104ZM138 51.7402H142.264V51.7402L138 51.7402ZM138 86.2598L142.264 86.2598V86.2598H138ZM126.37 97.8896V93.6254V97.8896ZM97.8896 97.8896V93.6254H93.6254V97.8896H97.8896ZM86.2598 138V142.264H86.2599L86.2598 138ZM51.7402 138L51.7402 142.264H51.7402V138ZM40.1104 97.8896H44.3746V93.6254H40.1104V97.8896ZM11.6299 97.8896V102.154V97.8896ZM0 86.2598H-4.2642V86.2598L0 86.2598ZM0 51.7402L-4.2642 51.7402V51.7402H0ZM11.6299 40.1104V44.3746V40.1104ZM40.1104 40.1104V44.3746H44.3746V40.1104H40.1104ZM51.7402 0V-4.2642H51.7402L51.7402 0ZM86.2598 0L86.2597 4.2642C90.3275 4.26429 93.6254 7.56223 93.6254 11.6299H97.8896H102.154C102.154 2.85195 95.0375 -4.26402 86.2598 -4.2642L86.2598 0ZM97.8896 11.6299H93.6254V40.1104H97.8896H102.154V11.6299H97.8896ZM97.8896 40.1104V44.3746H126.37V40.1104V35.8461H97.8896V40.1104ZM126.37 40.1104V44.3746C130.438 44.3746 133.736 47.6724 133.736 51.7403L138 51.7402L142.264 51.7402C142.264 42.9624 135.148 35.8461 126.37 35.8461V40.1104ZM138 51.7402H133.736V86.2598H138H142.264V51.7402H138ZM138 86.2598L133.736 86.2597C133.736 90.3276 130.438 93.6254 126.37 93.6254V97.8896V102.154C135.148 102.154 142.264 95.0376 142.264 86.2598L138 86.2598ZM126.37 97.8896V93.6254H97.8896V97.8896V102.154H126.37V97.8896ZM97.8896 97.8896H93.6254V126.37H97.8896H102.154V97.8896H97.8896ZM97.8896 126.37H93.6254C93.6254 130.438 90.3275 133.736 86.2597 133.736L86.2598 138L86.2599 142.264C95.0375 142.264 102.154 135.148 102.154 126.37H97.8896ZM86.2598 138V133.736H51.7402V138V142.264H86.2598V138ZM51.7402 138L51.7402 133.736C47.6724 133.736 44.3746 130.438 44.3746 126.37H40.1104H35.8461C35.8461 135.148 42.9623 142.264 51.7402 142.264L51.7402 138ZM40.1104 126.37H44.3746V97.8896H40.1104H35.8461V126.37H40.1104ZM40.1104 97.8896V93.6254H11.6299V97.8896V102.154H40.1104V97.8896ZM11.6299 97.8896V93.6254C7.56214 93.6254 4.26424 90.3276 4.2642 86.2597L0 86.2598L-4.2642 86.2598C-4.26412 95.0376 2.85195 102.154 11.6299 102.154V97.8896ZM0 86.2598H4.2642V51.7402H0H-4.2642V86.2598H0ZM0 51.7402L4.2642 51.7403C4.26426 47.6724 7.56217 44.3746 11.6299 44.3746V40.1104V35.8461C2.85195 35.8461 -4.26409 42.9624 -4.2642 51.7402L0 51.7402ZM11.6299 40.1104V44.3746H40.1104V40.1104V35.8461H11.6299V40.1104ZM40.1104 40.1104H44.3746V11.6299H40.1104H35.8461V40.1104H40.1104ZM40.1104 11.6299H44.3746C44.3746 7.56208 47.6724 4.26421 51.7402 4.2642L51.7402 0L51.7402 -4.2642C42.9623 -4.26418 35.8461 2.85195 35.8461 11.6299H40.1104ZM51.7402 0V4.2642H86.2598V0V-4.2642H51.7402V0Z" fill="#EA882D" mask="url(#path-1-inside-1_25_31)"/>
</svg>
