<svg width="140" height="140" viewBox="0 0 140 140" fill="none" xmlns="http://www.w3.org/2000/svg">
<mask id="path-1-inside-1_25_13" fill="white">
<path d="M83.6328 0C92.2897 0 99.3076 7.01789 99.3076 15.6748V40.6924H124.325C132.982 40.6924 140 47.7103 140 56.3672V83.6328C140 92.2897 132.982 99.3076 124.325 99.3076H99.3076V124.325C99.3076 132.982 92.2897 140 83.6328 140H56.3662C47.7095 140 40.6924 132.982 40.6924 124.325V99.3076H15.6748C7.01789 99.3076 -3.78406e-07 92.2897 0 83.6328V56.3672C3.78406e-07 47.7103 7.01789 40.6924 15.6748 40.6924H40.6924V15.6748C40.6924 7.01804 47.7095 0.000252438 56.3662 0H83.6328Z"/>
</mask>
<path d="M83.6328 0C92.2897 0 99.3076 7.01789 99.3076 15.6748V40.6924H124.325C132.982 40.6924 140 47.7103 140 56.3672V83.6328C140 92.2897 132.982 99.3076 124.325 99.3076H99.3076V124.325C99.3076 132.982 92.2897 140 83.6328 140H56.3662C47.7095 140 40.6924 132.982 40.6924 124.325V99.3076H15.6748C7.01789 99.3076 -3.78406e-07 92.2897 0 83.6328V56.3672C3.78406e-07 47.7103 7.01789 40.6924 15.6748 40.6924H40.6924V15.6748C40.6924 7.01804 47.7095 0.000252438 56.3662 0H83.6328Z" fill="#D9D9D9" fill-opacity="0.05"/>
<path d="M99.3076 40.6924H93.5602V46.4398H99.3076V40.6924ZM124.325 40.6924V34.945V40.6924ZM140 56.3672H134.253H140ZM140 83.6328H145.747H140ZM124.325 99.3076V93.5602V99.3076ZM99.3076 99.3076V93.5602H93.5602V99.3076H99.3076ZM56.3662 140L56.3661 145.747H56.3662V140ZM40.6924 99.3076H46.4398V93.5602H40.6924V99.3076ZM15.6748 99.3076V105.055V99.3076ZM0 83.6328H5.7474H0ZM0 56.3672H-5.7474H0ZM15.6748 40.6924V46.4398V40.6924ZM40.6924 40.6924V46.4398H46.4398V40.6924H40.6924ZM56.3662 0V-5.7474H56.366L56.3662 0ZM83.6328 0V5.7474C89.1155 5.7474 93.5602 10.1921 93.5602 15.6748H99.3076H105.055C105.055 3.84368 95.4639 -5.7474 83.6328 -5.7474V0ZM99.3076 15.6748H93.5602V40.6924H99.3076H105.055V15.6748H99.3076ZM99.3076 40.6924V46.4398H124.325V40.6924V34.945H99.3076V40.6924ZM124.325 40.6924V46.4398C129.808 46.4398 134.253 50.8845 134.253 56.3672H140H145.747C145.747 44.5361 136.156 34.945 124.325 34.945V40.6924ZM140 56.3672H134.253V83.6328H140H145.747V56.3672H140ZM140 83.6328H134.253C134.253 89.1155 129.808 93.5602 124.325 93.5602V99.3076V105.055C136.156 105.055 145.747 95.4639 145.747 83.6328H140ZM124.325 99.3076V93.5602H99.3076V99.3076V105.055H124.325V99.3076ZM99.3076 99.3076H93.5602V124.325H99.3076H105.055V99.3076H99.3076ZM99.3076 124.325H93.5602C93.5602 129.808 89.1155 134.253 83.6328 134.253V140V145.747C95.4639 145.747 105.055 136.156 105.055 124.325H99.3076ZM83.6328 140V134.253H56.3662V140V145.747H83.6328V140ZM56.3662 140L56.3664 134.253C50.884 134.252 46.4398 129.808 46.4398 124.325H40.6924H34.945C34.945 136.156 44.535 145.747 56.3661 145.747L56.3662 140ZM40.6924 124.325H46.4398V99.3076H40.6924H34.945V124.325H40.6924ZM40.6924 99.3076V93.5602H15.6748V99.3076V105.055H40.6924V99.3076ZM15.6748 99.3076V93.5602C10.1921 93.5602 5.7474 89.1155 5.7474 83.6328H0H-5.7474C-5.74741 95.4639 3.84368 105.055 15.6748 105.055V99.3076ZM0 83.6328H5.7474V56.3672H0H-5.7474V83.6328H0ZM0 56.3672H5.7474C5.74741 50.8845 10.1921 46.4398 15.6748 46.4398V40.6924V34.945C3.84368 34.945 -5.7474 44.5361 -5.7474 56.3672H0ZM15.6748 40.6924V46.4398H40.6924V40.6924V34.945H15.6748V40.6924ZM40.6924 40.6924H46.4398V15.6748H40.6924H34.945V40.6924H40.6924ZM40.6924 15.6748H46.4398C46.4398 10.1919 50.884 5.74756 56.3664 5.7474L56.3662 0L56.366 -5.7474C44.535 -5.74706 34.945 3.84414 34.945 15.6748H40.6924ZM56.3662 0V5.7474H83.6328V0V-5.7474H56.3662V0Z" fill="#EA882D" mask="url(#path-1-inside-1_25_13)"/>
</svg>
