<svg width="98" height="98" viewBox="0 0 98 98" fill="none" xmlns="http://www.w3.org/2000/svg">
<mask id="path-1-inside-1_25_28" fill="white">
<path d="M59.3428 0C64.961 0.000117075 69.5155 4.5546 69.5156 10.1729V28.4844H87.8271C93.4454 28.4845 97.9999 33.039 98 38.6572V59.3428C97.9999 64.961 93.4454 69.5155 87.8271 69.5156H69.5156V87.8271C69.5155 93.4454 64.961 97.9999 59.3428 98H38.6572C33.039 97.9999 28.4845 93.4454 28.4844 87.8271V69.5156H10.1729C4.5546 69.5155 0.000116504 64.961 0 59.3428V38.6572C0.000115005 33.039 4.5546 28.4845 10.1729 28.4844H28.4844V10.1729C28.4845 4.5546 33.039 0.000114432 38.6572 0H59.3428Z"/>
</mask>
<path d="M59.3428 0C64.961 0.000117075 69.5155 4.5546 69.5156 10.1729V28.4844H87.8271C93.4454 28.4845 97.9999 33.039 98 38.6572V59.3428C97.9999 64.961 93.4454 69.5155 87.8271 69.5156H69.5156V87.8271C69.5155 93.4454 64.961 97.9999 59.3428 98H38.6572C33.039 97.9999 28.4845 93.4454 28.4844 87.8271V69.5156H10.1729C4.5546 69.5155 0.000116504 64.961 0 59.3428V38.6572C0.000115005 33.039 4.5546 28.4845 10.1729 28.4844H28.4844V10.1729C28.4845 4.5546 33.039 0.000114432 38.6572 0H59.3428Z" fill="#D9D9D9" fill-opacity="0.05"/>
<path d="M59.3428 0L59.3428 -3.7301H59.3428V0ZM69.5156 10.1729H73.2457V10.1728L69.5156 10.1729ZM69.5156 28.4844H65.7855V32.2145H69.5156V28.4844ZM87.8271 28.4844L87.8272 24.7543H87.8271V28.4844ZM98 38.6572H101.73V38.6572L98 38.6572ZM98 59.3428L101.73 59.3428V59.3428H98ZM87.8271 69.5156V73.2457H87.8272L87.8271 69.5156ZM69.5156 69.5156V65.7855H65.7855V69.5156H69.5156ZM69.5156 87.8271L73.2457 87.8272V87.8271H69.5156ZM59.3428 98V101.73H59.3428L59.3428 98ZM38.6572 98L38.6572 101.73H38.6572V98ZM28.4844 87.8271H24.7543V87.8272L28.4844 87.8271ZM28.4844 69.5156H32.2145V65.7855H28.4844V69.5156ZM10.1729 69.5156L10.1728 73.2457H10.1729V69.5156ZM0 59.3428H-3.7301V59.3428L0 59.3428ZM0 38.6572L-3.7301 38.6572V38.6572H0ZM10.1729 28.4844V24.7543H10.1728L10.1729 28.4844ZM28.4844 28.4844V32.2145H32.2145V28.4844H28.4844ZM28.4844 10.1729L24.7543 10.1728V10.1729H28.4844ZM38.6572 0V-3.7301H38.6572L38.6572 0ZM59.3428 0L59.3427 3.7301C62.9009 3.73018 65.7855 6.61471 65.7855 10.1729L69.5156 10.1729L73.2457 10.1728C73.2456 2.49449 67.0211 -3.72994 59.3428 -3.7301L59.3428 0ZM69.5156 10.1729H65.7855V28.4844H69.5156H73.2457V10.1729H69.5156ZM69.5156 28.4844V32.2145H87.8271V28.4844V24.7543H69.5156V28.4844ZM87.8271 28.4844L87.8271 32.2145C91.3853 32.2145 94.2698 35.0991 94.2699 38.6573L98 38.6572L101.73 38.6572C101.73 30.9789 95.5055 24.7544 87.8272 24.7543L87.8271 28.4844ZM98 38.6572H94.2699V59.3428H98H101.73V38.6572H98ZM98 59.3428L94.2699 59.3427C94.2698 62.9009 91.3853 65.7855 87.8271 65.7855L87.8271 69.5156L87.8272 73.2457C95.5055 73.2456 101.73 67.0211 101.73 59.3428L98 59.3428ZM87.8271 69.5156V65.7855H69.5156V69.5156V73.2457H87.8271V69.5156ZM69.5156 69.5156H65.7855V87.8271H69.5156H73.2457V69.5156H69.5156ZM69.5156 87.8271L65.7855 87.8271C65.7855 91.3853 62.9009 94.2698 59.3427 94.2699L59.3428 98L59.3428 101.73C67.0211 101.73 73.2456 95.5055 73.2457 87.8272L69.5156 87.8271ZM59.3428 98V94.2699H38.6572V98V101.73H59.3428V98ZM38.6572 98L38.6573 94.2699C35.0991 94.2698 32.2145 91.3853 32.2145 87.8271L28.4844 87.8271L24.7543 87.8272C24.7544 95.5055 30.9789 101.73 38.6572 101.73L38.6572 98ZM28.4844 87.8271H32.2145V69.5156H28.4844H24.7543V87.8271H28.4844ZM28.4844 69.5156V65.7855H10.1729V69.5156V73.2457H28.4844V69.5156ZM10.1729 69.5156L10.1729 65.7855C6.61471 65.7855 3.73018 62.9009 3.7301 59.3427L0 59.3428L-3.7301 59.3428C-3.72994 67.0211 2.49449 73.2456 10.1728 73.2457L10.1729 69.5156ZM0 59.3428H3.7301V38.6572H0H-3.7301V59.3428H0ZM0 38.6572L3.7301 38.6573C3.73018 35.0991 6.61471 32.2145 10.1729 32.2145L10.1729 28.4844L10.1728 24.7543C2.49449 24.7544 -3.72995 30.9789 -3.7301 38.6572L0 38.6572ZM10.1729 28.4844V32.2145H28.4844V28.4844V24.7543H10.1729V28.4844ZM28.4844 28.4844H32.2145V10.1729H28.4844H24.7543V28.4844H28.4844ZM28.4844 10.1729L32.2145 10.1729C32.2145 6.61471 35.0991 3.73018 38.6573 3.7301L38.6572 0L38.6572 -3.7301C30.9789 -3.72995 24.7544 2.49449 24.7543 10.1728L28.4844 10.1729ZM38.6572 0V3.7301H59.3428V0V-3.7301H38.6572V0Z" fill="black" fill-opacity="0.5" mask="url(#path-1-inside-1_25_28)"/>
</svg>
